<?xml version="1.0" encoding="UTF-8" standalone="no"?>
<svg
   xmlns:dc="http://purl.org/dc/elements/1.1/"
   xmlns:cc="http://creativecommons.org/ns#"
   xmlns:rdf="http://www.w3.org/1999/02/22-rdf-syntax-ns#"
   xmlns:svg="http://www.w3.org/2000/svg"
   xmlns="http://www.w3.org/2000/svg"
   xmlns:xlink="http://www.w3.org/1999/xlink"
   xmlns:sodipodi="http://sodipodi.sourceforge.net/DTD/sodipodi-0.dtd"
   xmlns:inkscape="http://www.inkscape.org/namespaces/inkscape"
   id="SVGRoot"
   version="1.1"
   viewBox="0 0 1280 640"
   height="640px"
   width="1280px"
   inkscape:version="1.0rc1 (09960d6, 2020-04-09)"
   sodipodi:docname="logo.svg">
  <defs
     id="defs386">
    <linearGradient
       inkscape:collect="always"
       id="linearGradient1860">
      <stop
         style="stop-color:#00ffff;stop-opacity:1;"
         offset="0"
         id="stop1856" />
      <stop
         style="stop-color:#000080;stop-opacity:1"
         offset="1"
         id="stop1858" />
    </linearGradient>
    <inkscape:perspective
       sodipodi:type="inkscape:persp3d"
       inkscape:vp_x="-2379.1745 : 113.23185 : 1"
       inkscape:vp_y="0 : 2709.2249 : 0"
       inkscape:vp_z="3906.2273 : -645.35115 : 1"
       inkscape:persp3d-origin="1036.9497 : -2111.3892 : 1"
       id="perspective1644" />
    <rect
       x="120"
       y="800"
       width="680"
       height="320"
       id="rect764" />
    <rect
       x="320"
       y="480"
       width="360"
       height="120"
       id="rect470" />
    <rect
       x="480"
       y="40"
       width="560"
       height="160"
       id="rect464" />
    <rect
       x="80"
       y="400"
       width="600"
       height="160"
       id="rect458" />
    <rect
       x="120"
       y="40"
       width="640"
       height="200"
       id="rect446" />
    <rect
       x="320"
       y="440"
       width="720"
       height="120"
       id="rect440" />
    <rect
       x="22.857143"
       y="134.28571"
       width="34.285714"
       height="62.857143"
       id="rect425" />
    <rect
       x="25.714286"
       y="131.42857"
       width="1305.7143"
       height="414.28571"
       id="rect419" />
    <linearGradient
       inkscape:collect="always"
       xlink:href="#linearGradient1860"
       id="linearGradient1862"
       x1="0"
       y1="0"
       x2="1240"
       y2="600"
       gradientUnits="userSpaceOnUse"
       gradientTransform="matrix(0.99999505,0,0,1.0044944,0.00321072,-0.01607111)" />
    <rect
       id="rect764-8"
       height="320"
       width="680"
       y="800"
       x="120" />
  </defs>
  <sodipodi:namedview
     id="base"
     pagecolor="#ffffff"
     bordercolor="#666666"
     borderopacity="1.0"
     inkscape:pageopacity="0.0"
     inkscape:pageshadow="2"
     inkscape:zoom="0.59765625"
     inkscape:cx="640"
     inkscape:cy="320"
     inkscape:document-units="px"
     inkscape:current-layer="layer4"
     inkscape:document-rotation="0"
     showgrid="true"
     inkscape:window-width="1187"
     inkscape:window-height="733"
     inkscape:window-x="1354"
     inkscape:window-y="499"
     inkscape:window-maximized="0"
     showguides="true">
    <inkscape:grid
       type="xygrid"
       id="grid435" />
  </sodipodi:namedview>
  <metadata
     id="metadata389">
    <rdf:RDF>
      <cc:Work
         rdf:about="">
        <dc:format>image/svg+xml</dc:format>
        <dc:type
           rdf:resource="http://purl.org/dc/dcmitype/StillImage" />
        <dc:title />
        <cc:license
           rdf:resource="http://creativecommons.org/licenses/by/4.0/" />
      </cc:Work>
      <cc:License
         rdf:about="http://creativecommons.org/licenses/by/4.0/">
        <cc:permits
           rdf:resource="http://creativecommons.org/ns#Reproduction" />
        <cc:permits
           rdf:resource="http://creativecommons.org/ns#Distribution" />
        <cc:requires
           rdf:resource="http://creativecommons.org/ns#Notice" />
        <cc:requires
           rdf:resource="http://creativecommons.org/ns#Attribution" />
        <cc:permits
           rdf:resource="http://creativecommons.org/ns#DerivativeWorks" />
      </cc:License>
    </rdf:RDF>
  </metadata>
  <g
     sodipodi:insensitive="true"
     inkscape:groupmode="layer"
     id="layer4"
     inkscape:label="background"
     style="display:inline;opacity:1">
    <rect
       style="fill:#00ffff;fill-opacity:0;stroke:#008080;stroke-opacity:1"
       id="rect1592"
       width="1280"
       height="640"
       x="0"
       y="0" />
    <g
       sodipodi:type="inkscape:box3d"
       id="g1786"
       style="fill:#00ffff;stroke:#008080;stroke-opacity:1"
       inkscape:perspectiveID="#perspective1644"
       inkscape:corner0="0.47030851 : 1.0478215 : 0 : 1"
       inkscape:corner7="-0.072563864 : 0.81349792 : 0.25 : 1" />
    <path
       style="fill:url(#linearGradient1862);fill-opacity:1;stroke:#000080;stroke-width:2.86354;stroke-opacity:0"
       d="M 1.4317749,321.42213 V 2.8539129 H 640 1278.5682 V 321.42213 639.99036 H 640 1.4317749 Z"
       id="path1854"
       inkscape:connector-curvature="0"
       inkscape:export-filename="/Users/dwhite/Documents/repos/personal/my-hosts/docs/logo.png"
       inkscape:export-xdpi="96"
       inkscape:export-ydpi="96" />
  </g>
  <g
     sodipodi:insensitive="true"
     inkscape:groupmode="layer"
     id="layer3"
     inkscape:label="glasses"
     style="display:inline">
    <g
       id="g478"
       transform="matrix(2.6168349,0,0,2.6168349,-29.620806,-362.86869)">
      <g
         id="g476">
        <path
           id="path474"
           d="M 349.867,168.107 H 162.133 c -5.12,0 -8.533,3.413 -8.533,8.533 0,5.12 3.413,8.533 8.533,8.533 h 187.733 c 5.12,0 8.533,-3.413 8.533,-8.533 0,-5.12 -3.412,-8.533 -8.532,-8.533 z"
           inkscape:connector-curvature="0" />
      </g>
    </g>
    <g
       id="g484"
       transform="matrix(2.6168349,0,0,2.6168349,-29.620806,-362.86869)">
      <g
         id="g482">
        <path
           id="path480"
           d="M 167.253,168.107 H 91.307 c -40.96,0 -74.24,33.28 -74.24,74.24 V 268.8 c 0,22.187 9.387,42.667 26.453,57.173 13.653,11.947 30.72,17.92 47.787,17.92 4.267,0 8.533,0 11.947,0 l 75.947,-12.8 c 34.987,-5.973 59.733,-35.84 59.733,-70.827 v -20.48 c -0.001,-39.253 -32.427,-71.679 -71.681,-71.679 z m 54.614,91.306 c 0,26.453 -18.773,49.493 -45.227,53.76 l -75.947,12.8 c -16.213,2.56 -33.28,-1.707 -46.08,-12.8 -12.8,-11.093 -20.48,-26.453 -20.48,-43.52 v -27.307 c 0,-31.573 25.6,-57.173 57.173,-57.173 h 75.947 c 29.867,0 54.613,24.747 54.613,54.613 v 19.627 z"
           inkscape:connector-curvature="0" />
      </g>
    </g>
    <g
       id="g496"
       transform="matrix(2.6168349,0,0,2.6168349,-29.620806,-362.86869)">
      <g
         id="g494">
        <path
           id="path492"
           d="m 420.693,168.107 h -75.947 c -39.253,0 -71.68,32.427 -71.68,71.68 v 19.627 c 0,35.84 24.747,64.853 59.733,70.827 l 75.947,12.8 c 3.413,0.853 7.68,0.853 11.947,0.853 17.067,0 34.133,-5.973 47.787,-17.067 17.067,-14.507 26.453,-34.987 26.453,-57.173 v -27.307 c 0,-40.96 -33.28,-74.24 -74.24,-74.24 z m 57.174,101.546 c 0,17.067 -7.68,32.427 -20.48,43.52 -12.8,11.093 -29.013,15.36 -46.08,12.8 l -75.947,-12.8 c -26.453,-4.267 -45.227,-26.453 -45.227,-52.907 v -20.48 c 0,-29.867 24.747,-54.613 54.613,-54.613 h 75.947 c 31.573,0 57.173,25.6 57.173,57.173 v 27.307 z"
           inkscape:connector-curvature="0" />
      </g>
    </g>
    <g
       id="g514"
       transform="matrix(2.6168349,0,0,2.6168349,-29.620806,-362.86869)">
      <g
         id="g512">
        <path
           id="path510"
           d="m 290.133,209.92 c -20.48,-10.24 -46.08,-10.24 -66.56,0 -4.267,1.707 -5.973,6.827 -4.267,11.093 1.706,4.266 6.827,5.973 11.093,4.267 16.213,-7.68 35.84,-7.68 52.053,0 0.853,0.853 2.56,0.853 3.413,0.853 2.56,0 3.413,-1.707 5.973,-5.12 1.709,-4.266 2.562,-9.386 -1.705,-11.093 z"
           inkscape:connector-curvature="0" />
      </g>
    </g>
    <g
       id="g516"
       transform="matrix(2.6168349,0,0,2.6168349,-29.620806,-362.86869)" />
    <g
       id="g518"
       transform="matrix(2.6168349,0,0,2.6168349,-29.620806,-362.86869)" />
    <g
       id="g520"
       transform="matrix(2.6168349,0,0,2.6168349,-29.620806,-362.86869)" />
    <g
       id="g522"
       transform="matrix(2.6168349,0,0,2.6168349,-29.620806,-362.86869)" />
    <g
       id="g524"
       transform="matrix(2.6168349,0,0,2.6168349,-29.620806,-362.86869)" />
    <g
       id="g526"
       transform="matrix(2.6168349,0,0,2.6168349,-29.620806,-362.86869)" />
    <g
       id="g528"
       transform="matrix(2.6168349,0,0,2.6168349,-29.620806,-362.86869)" />
    <g
       id="g530"
       transform="matrix(2.6168349,0,0,2.6168349,-29.620806,-362.86869)" />
    <g
       id="g532"
       transform="matrix(2.6168349,0,0,2.6168349,-29.620806,-362.86869)" />
    <g
       id="g534"
       transform="matrix(2.6168349,0,0,2.6168349,-29.620806,-362.86869)" />
    <g
       id="g536"
       transform="matrix(2.6168349,0,0,2.6168349,-29.620806,-362.86869)" />
    <g
       id="g538"
       transform="matrix(2.6168349,0,0,2.6168349,-29.620806,-362.86869)" />
    <g
       id="g540"
       transform="matrix(2.6168349,0,0,2.6168349,-29.620806,-362.86869)" />
    <g
       id="g542"
       transform="matrix(2.6168349,0,0,2.6168349,-29.620806,-362.86869)" />
    <g
       id="g544"
       transform="matrix(2.6168349,0,0,2.6168349,-29.620806,-362.86869)" />
    <path
       style="fill:#ffffff;stroke:#000080;stroke-width:2.85714;stroke-opacity:0"
       d="M 185.26051,488.2984 C 129.32846,478.95531 80.721094,433.65857 65.579308,376.76868 59.796627,355.0423 59.962108,262.29391 65.827953,237.40877 78.866477,182.0944 127.19037,135.98796 182.6676,125.93058 c 21.67972,-3.93028 229.51966,-4.1126 250.51386,-0.21975 53.73374,9.96358 99.7978,55.02442 112.7534,110.29782 6.78717,28.95647 4.38345,101.54176 -4.14572,125.18928 -12.90497,35.7797 -40.77474,66.89673 -73.72637,82.31664 -16.56723,7.75274 -34.64854,11.5512 -135.02435,28.36523 -120.1557,20.12737 -123.41066,20.48903 -147.77791,16.4186 z"
       id="path1870"
       inkscape:connector-curvature="0" />
    <path
       style="fill:#ffffff;stroke:#000080;stroke-width:2.85714;stroke-opacity:0"
       d="m 952.27975,472.992 c -59.24614,-10.12677 -113.24614,-19.882 -120,-21.67826 -29.76662,-7.9168 -64.8385,-34.54245 -81.29039,-61.71355 -16.02299,-26.46275 -19.56297,-44.25459 -19.53289,-98.17162 0.023,-41.16818 0.96706,-52.77571 5.34485,-65.71428 17.07804,-50.47425 55.89267,-86.90753 104.89316,-98.45777 26.72908,-6.30049 235.59622,-6.30049 262.32532,0 52.109,12.28297 96.6053,55.57157 110.4012,107.40469 6.0495,22.7285 5.7642,124.52184 -0.4078,145.5345 -7.1137,24.21886 -20.8405,47.55663 -38.5527,65.54598 -26.9211,27.34228 -57.0009,41.33534 -94.8833,44.13945 -16.9555,1.25509 -39.5367,-1.71751 -128.29745,-16.88914 z"
       id="path1876"
       inkscape:connector-curvature="0" />
  </g>
  <g
     sodipodi:insensitive="true"
     inkscape:groupmode="layer"
     id="layer2"
     inkscape:label="text"
     style="display:inline">
    <text
       xml:space="preserve"
       id="text438"
       style="font-style:normal;font-weight:normal;font-size:96px;line-height:1.25;font-family:sans-serif;white-space:pre;shape-inside:url(#rect440);fill:#000000;fill-opacity:1;stroke:none;"
       transform="translate(408.57141,-197.14286)"><tspan
         sodipodi:role="line"
         x="320"
         y="527.58371"><tspan>CONFORM</tspan></tspan></text>
    <text
       xml:space="preserve"
       id="text444"
       style="font-style:normal;font-weight:normal;font-size:96px;line-height:1.25;font-family:sans-serif;white-space:pre;shape-inside:url(#rect446);fill:#000000;fill-opacity:1;stroke:none;"
       transform="translate(725.71429,97.142851)"><tspan
         sodipodi:role="line"
         x="120"
         y="127.58371"><tspan>OBEY</tspan></tspan></text>
    <text
       xml:space="preserve"
       id="text456"
       style="font-style:normal;font-weight:normal;font-size:96px;line-height:1.25;font-family:sans-serif;white-space:pre;shape-inside:url(#rect458);fill:#000000;fill-opacity:1;stroke:none;"
       transform="translate(79.999999,-34.285714)"><tspan
         sodipodi:role="line"
         x="80"
         y="487.58371"><tspan>BUY</tspan></tspan></text>
    <text
       xml:space="preserve"
       id="text462"
       style="font-style:normal;font-weight:normal;font-size:96px;line-height:1.25;font-family:sans-serif;white-space:pre;shape-inside:url(#rect464);fill:#000000;fill-opacity:1;stroke:none;"
       transform="translate(-368.57143,102.85714)"><tspan
         sodipodi:role="line"
         x="480"
         y="127.58371"><tspan>SUBMIT</tspan></tspan></text>
    <text
       xml:space="preserve"
       id="text468"
       style="font-style:normal;font-weight:normal;font-size:96px;line-height:1.25;font-family:sans-serif;white-space:pre;shape-inside:url(#rect470);fill:#000000;fill-opacity:1;stroke:none;"
       transform="translate(537.14285,-120)"><tspan
         sodipodi:role="line"
         x="320"
         y="567.58371"><tspan>SLEEP</tspan></tspan></text>
    <text
       transform="translate(-65.714286,-545.71428)"
       style="font-style:normal;font-weight:normal;font-size:96px;line-height:1.25;font-family:sans-serif;white-space:pre;shape-inside:url(#rect764-8);display:inline;fill:#000000;fill-opacity:1;stroke:none;"
       id="text762-1"
       xml:space="preserve"><tspan
         sodipodi:role="line"
         x="120"
         y="887.58371"><tspan>CONSUME</tspan></tspan></text>
  </g>
</svg>
